<?xml version="1.0" standalone="no"?>
<!DOCTYPE svg PUBLIC "-//W3C//DTD SVG 20010904//EN"
 "http://www.w3.org/TR/2001/REC-SVG-20010904/DTD/svg10.dtd">
<svg version="1.0" xmlns="http://www.w3.org/2000/svg"
 width="480.000000pt" height="480.000000pt" viewBox="0 0 480.000000 480.000000"
 preserveAspectRatio="xMidYMid meet">
<metadata>
Created by potrace 1.11, written by Peter Selinger 2001-2013
</metadata>
<g transform="translate(0.000000,480.000000) scale(0.100000,-0.100000)"
fill="#000000" stroke="none">
<path d="M1835 4745 l-90 -53 2 -59 c3 -131 11 -251 17 -261 3 -5 -12 -44 -33
-85 -22 -41 -38 -77 -35 -80 2 -2 -3 -10 -11 -17 -11 -10 -55 -14 -148 -14
l-132 -1 1 -130 c1 -111 5 -144 29 -220 26 -87 102 -246 134 -283 9 -10 32
-38 50 -62 33 -43 137 -162 208 -240 37 -40 36 -42 -42 -82 -22 -11 -43 -25
-46 -30 -3 -5 -10 -10 -15 -10 -30 -2 -366 -236 -479 -332 -16 -15 -50 -43
-74 -64 -71 -60 -262 -251 -321 -322 -30 -35 -65 -76 -78 -90 -13 -14 -31 -37
-40 -52 -9 -16 -20 -28 -24 -28 -4 0 -8 -6 -8 -14 0 -8 -4 -16 -8 -18 -8 -3
-122 -165 -122 -173 0 -3 -15 -29 -34 -58 -76 -118 -203 -416 -222 -517 -3
-14 -9 -41 -14 -60 -5 -19 -12 -52 -16 -74 -3 -21 -8 -48 -11 -60 -9 -39 -10
-297 -1 -344 5 -26 11 -60 14 -77 16 -96 81 -251 147 -350 50 -75 184 -208
257 -256 102 -68 262 -143 329 -156 13 -2 31 -8 40 -12 15 -8 120 -31 221 -48
59 -10 435 -10 527 0 40 4 96 12 125 17 29 6 67 13 83 16 23 4 120 26 215 49
3 1 25 8 50 15 25 7 48 14 53 16 4 1 9 3 12 4 3 1 8 3 13 4 15 4 118 39 147
51 243 99 432 190 574 276 34 22 67 39 71 39 5 0 10 3 12 8 3 8 96 72 104 72
3 0 33 21 68 48 35 26 76 56 92 67 15 11 33 26 40 32 7 7 16 13 20 13 3 0 14
8 23 18 9 10 23 23 32 28 9 5 56 45 105 89 182 166 334 330 445 480 24 33 46
62 49 65 3 3 26 37 51 75 163 252 281 527 323 756 2 13 5 24 6 24 12 0 18 315
8 390 -13 96 -13 93 -33 160 -39 129 -115 272 -190 353 -60 66 -72 78 -114
112 -24 19 -48 40 -54 45 -38 34 -190 115 -272 146 -72 27 -67 25 -154 48 -40
11 -94 22 -119 26 -25 3 -48 8 -52 10 -25 15 -403 27 -432 13 -24 -12 -24 -9
21 80 35 70 69 157 61 157 -2 0 2 10 8 22 7 12 15 39 18 60 8 43 12 239 6 265
-3 14 -21 16 -135 16 -175 0 -179 1 -173 10 3 5 7 46 10 93 25 387 25 409 6
420 -8 4 -44 26 -80 47 -99 58 -95 58 -128 -1 -16 -29 -44 -79 -62 -112 -18
-33 -37 -61 -42 -63 -4 -2 -8 -10 -8 -18 0 -12 -3 -12 -23 0 -58 39 -150 59
-272 60 -118 1 -145 -2 -215 -23 -24 -8 -36 -8 -38 -1 -2 6 -9 16 -16 23 -6 6
-18 26 -27 42 -30 62 -81 145 -87 144 -4 -1 -47 -25 -97 -54z m1688 -1850 c53
-3 107 -8 119 -10 12 -3 40 -7 63 -10 45 -7 180 -43 204 -55 9 -4 35 -16 59
-25 46 -20 44 -14 44 -140 1 -118 -24 -274 -58 -375 -9 -25 -17 -50 -18 -57
-1 -7 -5 -16 -9 -19 -4 -4 -7 -14 -7 -21 0 -8 -22 -60 -48 -116 -209 -440
-603 -821 -1197 -1158 -144 -82 -271 -146 -370 -188 -44 -18 -91 -39 -105 -46
-25 -13 -259 -94 -289 -100 -9 -2 -55 -13 -103 -24 -49 -11 -105 -23 -125 -26
-21 -3 -49 -8 -63 -11 -14 -2 -95 -6 -180 -8 -138 -4 -222 2 -300 19 -14 3
-36 8 -50 11 -80 15 -277 101 -301 131 -21 24 -14 195 11 301 23 97 87 273
121 330 10 18 19 40 19 48 0 8 5 14 10 14 6 0 10 5 10 11 0 6 23 49 50 96 28
47 50 89 50 94 0 5 4 9 9 9 5 0 13 9 16 20 3 11 12 26 18 33 7 6 29 37 49 67
41 60 179 205 303 317 83 74 98 87 160 138 21 17 45 37 55 45 76 63 127 100
139 100 6 0 11 4 11 9 0 5 24 24 53 42 28 18 54 36 57 39 9 10 85 56 103 63 9
3 17 11 17 17 0 5 5 10 11 10 5 0 51 24 102 54 146 85 336 174 499 232 97 35
258 83 258 77 0 -3 7 0 15 7 8 7 15 10 15 7 0 -3 17 -1 38 4 119 30 163 36
307 45 61 3 112 8 114 10 2 2 7 2 10 0 3 -2 50 -7 104 -11z"/>
</g>
</svg>
